<svg xmlns="http://www.w3.org/2000/svg" viewBox="0 0 560 360" role="img" aria-labelledby="title desc">
  <title id="title">小桔子独立卡通形象示意</title>
  <desc id="desc">根据滴滴公开小桔子形象绘制的矢量示意，非官方母版。橙色圆润身体、绿色叶片、大眼睛及微笑。</desc>
  <ellipse cx="280" cy="319" rx="92" ry="9" fill="#d9cbb8" opacity=".45"/>
  <path d="M238 288c-13 4-26 17-22 25 4 9 33 8 44-1l8-20M292 292l8 20c11 9 40 10 44 1 4-8-9-21-22-25" fill="#513b2c"/>
  <path d="M183 184c-22 1-41 19-37 32 3 10 21 8 40-3M377 184c22 1 41 19 37 32-3 10-21 8-40-3" fill="#f48522" stroke="#dc681b" stroke-width="3"/>
  <path d="M280 71c-63-9-112 24-116 101-5 77 37 133 116 133s121-56 116-133C392 95 343 62 280 71Z" fill="#f58a24" stroke="#dd6b1e" stroke-width="3"/>
  <path d="M183 156c4-35 24-57 48-62" fill="none" stroke="#ffb351" stroke-width="12" stroke-linecap="round" opacity=".7"/>
  <path d="M276 78c-10-27 5-45 31-40 21 4 32 23 28 39-20 15-46 13-59 1Z" fill="#47a568" stroke="#328154" stroke-width="3"/>
  <path d="M288 64l29 7" fill="none" stroke="#72c385" stroke-width="4" stroke-linecap="round"/>
  <ellipse cx="229" cy="186" rx="39" ry="48" fill="#fffaf2" transform="rotate(-9 229 186)"/>
  <ellipse cx="331" cy="181" rx="36" ry="46" fill="#fffaf2" transform="rotate(9 331 181)"/>
  <ellipse cx="236" cy="187" rx="27" ry="35" fill="#302b2b"/>
  <ellipse cx="326" cy="182" rx="26" ry="34" fill="#302b2b"/>
  <ellipse cx="244" cy="174" rx="8" ry="11" fill="#fff"/>
  <ellipse cx="334" cy="169" rx="8" ry="11" fill="#fff"/>
  <path d="M263 238q17 22 34-1" fill="none" stroke="#fff8ed" stroke-width="5" stroke-linecap="round"/>
  <path d="M195 235l-9 8m22-4-9 8m153-12-9 8m22-4-9 8" stroke="#ffe0b0" stroke-width="4" stroke-linecap="round"/>
</svg>
